<?xml version="1.0" encoding="utf-8"?>
<!-- Generator: Adobe Illustrator 23.0.4, SVG Export Plug-In . SVG Version: 6.00 Build 0)  -->
<svg version="1.1" id="Capa_1" xmlns="http://www.w3.org/2000/svg" xmlns:xlink="http://www.w3.org/1999/xlink" x="0px" y="0px"
	 viewBox="0 0 782.8 300" style="enable-background:new 0 0 782.8 300;" xml:space="preserve">
<style type="text/css">
	.st0{fill:none;stroke:#B51920;stroke-width:35;stroke-miterlimit:10;}
	.st1{fill:#333333;}
	.st2{fill:none;stroke:url(#SVGID_1_);stroke-width:21.0003;stroke-miterlimit:10;}
	.st3{fill:#E83A54;}
	.st4{fill:url(#SVGID_2_);}
</style>
<g>
	<g>
		<path class="st1" d="M26.7,41.5c13.2-4,26.2-7.3,39.2-7.3c27.2,0,41.8,19.2,41.8,40.2c0,11.1-5.9,27.9-22.7,35.4l22.2,47.7H79.7
			l-19.2-44h-8.8v44h-25V41.5z M64,93.7c11.6,0,17.5-7.5,17.5-19.2C81.5,63.7,77,55,65.7,55c-4.7,0-9.4,0.5-14,2.1v36.6H64z"/>
		<path class="st1" d="M127.2,85.9c0-29.8,17.8-51.6,48.7-51.6s48.7,21.8,48.7,51.6v22.2c0,29.8-17.8,51.6-48.7,51.6
			s-48.7-21.8-48.7-51.6V85.9z M199,106.1V87.8c0-17.5-4.7-32.8-23-32.8c-18.2,0-23,15.2-23,32.8v18.4c0,17.7,4.9,32.8,23,32.8
			C194.3,138.9,199,123.8,199,106.1z"/>
		<path class="st1" d="M267.9,55.5c2.9-11.4,11.4-21.3,26-21.3c14.2,0,22.9,10.2,25.8,21.3l26.9,101.9h-25.1l-7.8-31h-39.5l-7.6,31
			h-25.1L267.9,55.5z M308.7,106l-11.8-47.5c-0.3-1.7-1.4-2.9-2.9-2.9c-1.7,0-2.6,1.2-2.9,2.9L279.2,106H308.7z"/>
		<path class="st1" d="M366.5,132.5c11.1,3.5,20.4,6.4,31.4,6.4c11.8,0,16.6-6.2,16.6-14.6c0-23.6-50.1-14.7-50.1-56.1
			c0-21.5,18-34,41.8-34c11.6,0,19.6,2.4,31.2,6.6L431,60.2c-9.5-3.3-15.4-5.2-24.8-5.2c-10.4,0-15.6,5.2-15.6,13.2
			c0,20.3,50.1,15.1,50.1,56.1c0,21.3-17.3,35.4-42.8,35.4c-13.5,0-22.7-2.9-35.9-7.1L366.5,132.5z"/>
		<path class="st1" d="M461.8,132.5c11.1,3.5,20.4,6.4,31.4,6.4c11.8,0,16.6-6.2,16.6-14.6c0-23.6-50.1-14.7-50.1-56.1
			c0-21.5,18-34,41.8-34c11.6,0,19.6,2.4,31.2,6.6l-6.4,19.4c-9.5-3.3-15.4-5.2-24.8-5.2c-10.4,0-15.6,5.2-15.6,13.2
			c0,20.3,50.1,15.1,50.1,56.1c0,21.3-17.3,35.4-42.8,35.4c-13.5,0-22.7-2.9-35.9-7.1L461.8,132.5z"/>
		<path class="st1" d="M578.5,55.5c2.9-11.4,11.4-21.3,26-21.3c14.2,0,22.9,10.2,25.8,21.3l26.9,101.9H632l-7.8-31h-39.5l-7.6,31
			H552L578.5,55.5z M619.2,106l-11.8-47.5c-0.3-1.7-1.4-2.9-2.9-2.9c-1.7,0-2.6,1.2-2.9,2.9L589.7,106H619.2z"/>
		<path class="st1" d="M679.8,36.5h25v100.2h51.3v16.3c0,2.8-1.7,4.5-4.5,4.5h-71.7V36.5z"/>
	</g>
	<g>
		<path class="st1" d="M26.7,189.7h6l14.2,42.8c0.9,2.8,2.1,7.4,3,10.8c0.8-3.4,2-7.9,3-10.8l14.2-42.8h6.1l-19.6,59.1h-7.2
			L26.7,189.7z"/>
		<path class="st1" d="M83,193.2c0-2.1,1.6-3.6,3.7-3.6c2.2,0,3.9,1.5,3.9,3.6c0,2.1-1.7,3.9-3.9,3.9C84.6,197.1,83,195.3,83,193.2z
			 M83.9,205.4h5.8v41.7c0,1-0.6,1.7-1.7,1.7h-4.1V205.4z"/>
		<path class="st1" d="M102.4,242.4c3.7,1.3,7.5,2.3,11.3,2.3c6.2,0,8.8-2.9,8.8-7.3c0-9.3-20.5-7.3-20.5-21.2
			c0-7.5,5.9-11.9,14.2-11.9c3.6,0,6.9,0.6,10.4,1.9l-1.4,4.8c-3-0.9-5.9-1.5-9-1.5c-5.4,0-8.3,2.5-8.3,6.8
			c0,8.8,20.5,7.5,20.5,21.2c0,7.6-5.8,12.4-14.8,12.4c-4.3,0-8.4-0.9-12.5-2.3L102.4,242.4z"/>
		<path class="st1" d="M139.9,207.1c0-1,0.7-1.7,1.7-1.7h4.1v28.4c0,7,2.2,10.8,9.4,10.8c4.3,0,8-2.3,12-5.4v-33.9h5.8v43.3h-4.6
			l-0.6-4.6c-4.3,3.5-8.7,5.7-13.4,5.7c-9.6,0-14.4-5.8-14.4-14.6V207.1z"/>
		<path class="st1" d="M211.4,244.4c-3.6,3.2-8.1,5.5-13.3,5.5c-8.6,0-13.8-5.2-13.8-12.6c0-9,7.5-12.5,18.5-12.5h8v-4.1
			c0-7.4-2.7-11.1-10.4-11.1c-4.1,0-7.7,0.8-11.8,2l-1.3-5c4.4-1.4,8.5-2.2,13-2.2c11,0,16.2,6.3,16.2,15.2v29.3h-4.5L211.4,244.4z
			 M210.9,229.5h-7.6c-7.8,0-13,1.8-13,7.8c0,4.4,2.7,7.5,8.5,7.5c4.4,0,8.8-2,12.1-5.2V229.5z"/>
		<path class="st1" d="M230.8,187.3h5.8v53.8c0,2.7,0.9,3.3,2.5,3.6l-1.2,4.9c-3.7-0.3-7.1-1.6-7.1-8V187.3z"/>
		<path class="st1" d="M250.5,193.2c0-2.1,1.6-3.6,3.7-3.6c2.2,0,3.9,1.5,3.9,3.6c0,2.1-1.7,3.9-3.9,3.9
			C252.1,197.1,250.5,195.3,250.5,193.2z M251.3,205.4h5.8v41.7c0,1-0.6,1.7-1.7,1.7h-4.1V205.4z"/>
		<path class="st1" d="M269.4,244.7l21.9-34.1h-21.1v-5.2h28.2v4.1l-21.9,34.1h23v5.1h-30.1V244.7z"/>
		<path class="st1" d="M335.4,244.4c-3.6,3.2-8.1,5.5-13.3,5.5c-8.6,0-13.8-5.2-13.8-12.6c0-9,7.5-12.5,18.5-12.5h8v-4.1
			c0-7.4-2.7-11.1-10.4-11.1c-4.1,0-7.7,0.8-11.8,2l-1.3-5c4.4-1.4,8.5-2.2,13-2.2c11,0,16.2,6.3,16.2,15.2v29.3h-4.5L335.4,244.4z
			 M334.8,229.5h-7.6c-7.8,0-13,1.8-13,7.8c0,4.4,2.7,7.5,8.5,7.5c4.4,0,8.8-2,12.1-5.2V229.5z"/>
		<path class="st1" d="M355.8,210l-7.1-0.5v-4.1h7.1v-14.2h5.8v14.2h10.7v4.6h-10.7v26.4c0,6.3,3.1,8.3,7.1,8.3
			c1.9,0,3.9-0.3,5.8-0.7l0.8,5c-2.2,0.6-4.5,0.8-6.8,0.8c-7.6,0-12.7-4.7-12.7-12.7V210z"/>
		<path class="st1" d="M383.5,193.2c0-2.1,1.6-3.6,3.7-3.6c2.2,0,3.9,1.5,3.9,3.6c0,2.1-1.7,3.9-3.9,3.9
			C385.1,197.1,383.5,195.3,383.5,193.2z M384.3,205.4h5.8v41.7c0,1-0.6,1.7-1.7,1.7h-4.1V205.4z"/>
		<path class="st1" d="M402.8,223.2c0-11.7,6.6-18.9,17.7-18.9c11,0,17.6,7.2,17.6,18.9v7.7c0,11.8-6.6,19-17.6,19
			c-11.1,0-17.7-7.2-17.7-19V223.2z M408.6,230.2c0,8.8,3.2,14.5,11.9,14.5c8.6,0,11.8-5.7,11.8-14.5v-6.4c0-8.6-3.3-14.3-11.8-14.3
			c-8.6,0-11.9,5.7-11.9,14.3V230.2z"/>
		<path class="st1" d="M450.8,205.4h4.6l0.7,4.6c4.3-3.5,8.6-5.7,13.4-5.7c9.6,0,14.3,5.8,14.3,14.6v28.2c0,1-0.7,1.7-1.7,1.7H478
			v-28.4c0-6.9-2.2-10.8-9.3-10.8c-4.4,0-8,2.4-12.1,5.4v33.9h-5.8V205.4z"/>
		<path class="st1" d="M518.4,204.3c0-8.8,5.2-14.6,16.4-14.6H550v5.2h-15.2c-8.2,0-10.6,3.9-10.6,9.6v11.3h23.3v5.2h-23.3v12.9
			c0,5.8,2.4,9.6,10.6,9.6h15.6v3.6c0,1-0.7,1.7-1.7,1.7h-13.9c-11.1,0-16.4-5.8-16.4-14.6V204.3z"/>
		<path class="st1" d="M562.8,205.4h4.6l0.7,4.6c4.3-3.5,8.6-5.7,13.4-5.7c9.6,0,14.3,5.8,14.3,14.6v28.2c0,1-0.7,1.7-1.7,1.7H590
			v-28.4c0-6.9-2.2-10.8-9.3-10.8c-4.4,0-8,2.4-12.1,5.4v33.9h-5.8V205.4z"/>
		<path class="st1" d="M616,260.7h12.2c5.3,0,8.1-3.5,8.1-8.5v-8.3c-4.1,3.2-8,4.8-12.5,4.8c-9.7,0-15.7-6.4-15.7-17.3v-9.9
			c0-10.8,5.9-17.3,15.7-17.3c4.7,0,8.7,2.1,13.1,5.7l0.6-4.6h4.6v46.7c0,8.5-4.8,13.6-13.9,13.6H617L616,260.7z M613.9,230.1
			c0,9.1,3.2,13.5,10.6,13.5c4.4,0,8-2.1,11.9-4.9V215c-3.4-2.7-7.5-5.5-11.9-5.5c-7.4,0-10.6,4.4-10.6,13.5V230.1z"/>
		<path class="st1" d="M655.8,193.2c0-2.1,1.6-3.6,3.7-3.6c2.2,0,3.9,1.5,3.9,3.6c0,2.1-1.7,3.9-3.9,3.9
			C657.5,197.1,655.8,195.3,655.8,193.2z M656.7,205.4h5.8v41.7c0,1-0.6,1.7-1.7,1.7h-4.1V205.4z"/>
		<path class="st1" d="M677,205.4h4.6l0.7,4.6c4.3-3.5,8.6-5.7,13.4-5.7c9.6,0,14.3,5.8,14.3,14.6v28.2c0,1-0.7,1.7-1.7,1.7h-4.1
			v-28.4c0-6.9-2.2-10.8-9.3-10.8c-4.4,0-8,2.4-12.1,5.4v33.9H677V205.4z"/>
		<path class="st1" d="M722.2,221.7c0-9.1,6.3-17.4,16.9-17.4s16.9,8.6,16.9,17.4v4.7c0,0.9-0.8,1.7-1.6,1.7H728v4.5
			c0,5.3,2.8,12.1,11.7,12.1c4.6,0,8.7-1,13.2-2.3l1.3,4.9c-4.9,1.5-9.5,2.5-14.5,2.5c-11.4,0-17.4-8.4-17.4-17.3V221.7z
			 M750.3,223.5v-2.1c0-5.5-3-11.9-11.2-11.9c-8.1,0-11.2,6.3-11.2,11.9v2.1H750.3z"/>
	</g>
</g>
</svg>
